<svg width="95" height="105" viewBox="0 0 95 105" fill="none" xmlns="http://www.w3.org/2000/svg">
<rect y="57.0996" width="66.9773" height="66.9773" rx="15.4435" transform="rotate(-45 0 57.0996)" fill="#0B0B0D"/>
<path d="M47.0706 18.3692C51.8622 18.3692 56.3496 20.2326 59.7341 23.6171L80.764 44.647C84.1485 48.0315 86.0119 52.5189 86.0119 57.3105C86.0119 62.1022 84.1485 66.5895 80.764 69.9741L59.7341 91.0039C56.3496 94.3885 51.8622 96.2519 47.0706 96.2519C42.279 96.2519 37.7915 94.3885 34.407 91.0039L13.3771 69.9741C9.99259 66.5895 8.12919 62.1022 8.12919 57.3105C8.12919 52.5189 9.99259 48.0315 13.3771 44.647L34.407 23.6171C37.7915 20.2326 42.279 18.3692 47.0706 18.3692ZM47.0706 15.1367C41.6705 15.1367 36.2324 17.1903 32.1253 21.3354L11.0954 42.3653C2.84319 50.6175 2.84319 64.0036 11.0954 72.2938L32.1253 93.3237C36.2704 97.4688 41.6705 99.5224 47.0706 99.5224C52.4706 99.5224 57.9087 97.4688 62.0158 93.3237L83.0457 72.2938C91.2979 64.0416 91.2979 50.6555 83.0457 42.3653L62.0158 21.3354C57.9087 17.1903 52.5087 15.1367 47.0706 15.1367Z" fill="#0B733B"/>
<path d="M83.0809 72.2915L62.0131 93.3213C53.7608 101.574 40.3747 101.574 32.0845 93.3213L11.0546 72.2915C4.74185 65.9787 3.25874 56.6997 6.56724 48.9799C7.59401 48.7137 8.6588 48.5996 9.76163 48.5996C17.0251 48.5996 22.8815 54.4941 22.8815 61.7195C22.8815 63.735 22.4252 65.5984 21.6266 67.3097C22.6534 66.9675 23.7182 66.7773 24.859 66.7773C29.5746 66.7773 33.5296 70.0098 34.5944 74.3831C34.9366 74.307 35.2789 74.307 35.6592 74.307C39.3099 74.307 42.2762 77.1972 42.4283 80.8099C43.8353 80.0874 45.3945 79.669 47.0678 79.669C48.741 79.669 50.3382 80.0874 51.7073 80.8099C51.8594 77.1972 54.8256 74.307 58.4764 74.307C58.8187 74.307 59.1989 74.345 59.5412 74.3831C60.606 70.0098 64.561 66.7773 69.2765 66.7773C70.4174 66.7773 71.4822 66.9675 72.509 67.3097C71.7104 65.5984 71.254 63.735 71.254 61.7195C71.254 54.456 77.1104 48.5996 84.3739 48.5996C85.4768 48.5996 86.5416 48.7517 87.5683 48.9799C90.8768 56.6617 89.3937 65.9787 83.0809 72.2915Z" fill="url(#paint0_radial_7150_17646)"/>
<path d="M51.7895 59.2871H47.0739H42.3964L38.4414 94.6538H47.0739H55.7064L51.7895 59.2871Z" fill="url(#paint1_linear_7150_17646)"/>
<path d="M49.3167 59.2871H47.073H44.8673L43.0039 94.6538H47.073H51.1801L49.3167 59.2871Z" fill="url(#paint2_linear_7150_17646)"/>
<path d="M47.0739 0C44.564 0 38.4414 12.7396 38.4414 18.2538C38.4414 28.0652 38.4414 57.3092 38.4414 57.3092H47.0739H55.7064C55.7064 57.3092 55.7064 28.0652 55.7064 18.2538C55.7064 12.7776 49.6218 0 47.0739 0Z" fill="white"/>
<path d="M52.396 13.0828C52.0537 12.8166 50.5326 11.6758 47.072 11.6758C43.5733 11.6758 42.0522 12.8166 41.7479 13.0828C41.7099 13.1209 41.6719 13.1589 41.6719 13.235V14.1857C41.6719 14.3378 41.862 14.4519 41.9761 14.3378C42.5846 13.9195 44.1437 13.1209 47.072 13.1209C50.0002 13.1209 51.5593 13.9195 52.1678 14.3378C52.3199 14.4138 52.472 14.3378 52.472 14.1857V13.235C52.472 13.1969 52.472 13.1209 52.396 13.0828Z" fill="#04D361"/>
<path d="M38.4401 41.1855C38.4401 41.1855 28.0582 49.4758 27.4118 61.3407C27.3737 61.9872 28.0202 62.5196 28.6287 62.2915C31.671 61.3407 33.7625 57.3097 38.4401 57.3097V41.1855Z" fill="#04D361"/>
<path d="M55.7031 41.1855C55.7031 41.1855 66.085 49.4758 66.7314 61.3407C66.7695 61.9872 66.123 62.5196 65.5145 62.2915C62.4722 61.3407 60.3807 57.3097 55.7031 57.3097V41.1855Z" fill="#04D361"/>
<path d="M47.0739 57.3105H38.4414L40.3048 61.3036C40.3048 61.3036 45.4387 61.836 47.0739 61.836C48.7092 61.836 53.843 61.3036 53.843 61.3036L55.7064 57.3105H47.0739Z" fill="#04D361"/>
<path d="M47.072 41.1855C46.1213 41.1855 44.9805 51.073 44.9805 61.721C44.9805 63.3943 46.0453 65.0676 47.072 65.0676C48.1368 65.0676 49.1636 63.3943 49.1636 61.721C49.2017 51.073 48.0228 41.1855 47.072 41.1855Z" fill="#04D361"/>
<defs>
<radialGradient id="paint0_radial_7150_17646" cx="0" cy="0" r="1" gradientUnits="userSpaceOnUse" gradientTransform="translate(46.9601 57.003) scale(54.4362)">
<stop stop-color="#68E5A0"/>
<stop offset="0.00567427" stop-color="#04D361"/>
<stop offset="0.584253" stop-color="#04D361" stop-opacity="0"/>
</radialGradient>
<linearGradient id="paint1_linear_7150_17646" x1="47.0818" y1="59.2931" x2="47.0818" y2="105.651" gradientUnits="userSpaceOnUse">
<stop stop-color="#06B656"/>
<stop offset="0.380208" stop-color="#08994A" stop-opacity="0"/>
</linearGradient>
<linearGradient id="paint2_linear_7150_17646" x1="47.0809" y1="59.2931" x2="47.0809" y2="105.651" gradientUnits="userSpaceOnUse">
<stop stop-color="#06B656"/>
<stop offset="0.4633" stop-color="#08994A" stop-opacity="0"/>
</linearGradient>
</defs>
</svg>
